<mxfile host="app.diagrams.net" modified="2023-09-18T06:32:38.492Z" agent="Mozilla/5.0 (Macintosh; Intel Mac OS X 10_15_7) AppleWebKit/537.36 (KHTML, like Gecko) Chrome/114.0.0.0 Safari/537.36" etag="al4TWMibkK6ivPoUnx3Q" version="21.7.4" type="github">
  <diagram id="R2lEEEUBdFMjLlhIrx00" name="Page-1">
    <mxGraphModel dx="1363" dy="844" grid="1" gridSize="10" guides="1" tooltips="1" connect="1" arrows="1" fold="1" page="1" pageScale="1" pageWidth="1100" pageHeight="850" math="0" shadow="0" extFonts="Permanent Marker^https://fonts.googleapis.com/css?family=Permanent+Marker">
      <root>
        <mxCell id="0" />
        <mxCell id="1" parent="0" />
        <mxCell id="BaDLSpwHCjFPU6KFAHDN-38" style="edgeStyle=orthogonalEdgeStyle;curved=1;rounded=0;orthogonalLoop=1;jettySize=auto;html=1;startArrow=ERoneToMany;startFill=0;endArrow=ERone;endFill=0;" parent="1" source="C-vyLk0tnHw3VtMMgP7b-23" target="BaDLSpwHCjFPU6KFAHDN-27" edge="1">
          <mxGeometry relative="1" as="geometry" />
        </mxCell>
        <mxCell id="BaDLSpwHCjFPU6KFAHDN-39" value="Student" style="edgeLabel;html=1;align=center;verticalAlign=middle;resizable=0;points=[];" parent="BaDLSpwHCjFPU6KFAHDN-38" vertex="1" connectable="0">
          <mxGeometry x="-0.78" y="-1" relative="1" as="geometry">
            <mxPoint x="31" as="offset" />
          </mxGeometry>
        </mxCell>
        <mxCell id="BaDLSpwHCjFPU6KFAHDN-40" value="Belongs" style="edgeLabel;html=1;align=center;verticalAlign=middle;resizable=0;points=[];" parent="BaDLSpwHCjFPU6KFAHDN-38" vertex="1" connectable="0">
          <mxGeometry relative="1" as="geometry">
            <mxPoint x="-18" y="-50" as="offset" />
          </mxGeometry>
        </mxCell>
        <mxCell id="BaDLSpwHCjFPU6KFAHDN-41" value="Group" style="edgeLabel;html=1;align=center;verticalAlign=middle;resizable=0;points=[];" parent="BaDLSpwHCjFPU6KFAHDN-38" vertex="1" connectable="0">
          <mxGeometry x="0.84" y="1" relative="1" as="geometry">
            <mxPoint x="24" as="offset" />
          </mxGeometry>
        </mxCell>
        <mxCell id="C-vyLk0tnHw3VtMMgP7b-23" value="Person" style="shape=table;startSize=30;container=1;collapsible=1;childLayout=tableLayout;fixedRows=0;rowLines=0;fontStyle=1;align=center;resizeLast=1;columnLines=0;" parent="1" vertex="1">
          <mxGeometry x="160" y="640" width="250" height="160.00000000000023" as="geometry" />
        </mxCell>
        <mxCell id="BaDLSpwHCjFPU6KFAHDN-98" style="shape=partialRectangle;collapsible=0;dropTarget=0;pointerEvents=0;fillColor=none;points=[[0,0.5],[1,0.5]];portConstraint=eastwest;top=0;left=0;right=0;bottom=0;" parent="C-vyLk0tnHw3VtMMgP7b-23" vertex="1">
          <mxGeometry y="30" width="250" height="32" as="geometry" />
        </mxCell>
        <mxCell id="BaDLSpwHCjFPU6KFAHDN-99" value="PersonId" style="shape=partialRectangle;overflow=hidden;connectable=0;fillColor=none;top=0;left=0;bottom=0;right=0;" parent="BaDLSpwHCjFPU6KFAHDN-98" vertex="1">
          <mxGeometry width="170" height="32" as="geometry">
            <mxRectangle width="170" height="32" as="alternateBounds" />
          </mxGeometry>
        </mxCell>
        <mxCell id="BaDLSpwHCjFPU6KFAHDN-100" value="int" style="shape=partialRectangle;overflow=hidden;connectable=0;fillColor=none;top=0;left=0;bottom=0;right=0;align=left;spacingLeft=6;" parent="BaDLSpwHCjFPU6KFAHDN-98" vertex="1">
          <mxGeometry x="170" width="80" height="32" as="geometry">
            <mxRectangle width="80" height="32" as="alternateBounds" />
          </mxGeometry>
        </mxCell>
        <mxCell id="C-vyLk0tnHw3VtMMgP7b-27" value="" style="shape=partialRectangle;collapsible=0;dropTarget=0;pointerEvents=0;fillColor=none;points=[[0,0.5],[1,0.5]];portConstraint=eastwest;top=0;left=0;right=0;bottom=0;" parent="C-vyLk0tnHw3VtMMgP7b-23" vertex="1">
          <mxGeometry y="62" width="250" height="28" as="geometry" />
        </mxCell>
        <mxCell id="C-vyLk0tnHw3VtMMgP7b-28" value="LastName" style="shape=partialRectangle;overflow=hidden;connectable=0;fillColor=none;top=0;left=0;bottom=0;right=0;" parent="C-vyLk0tnHw3VtMMgP7b-27" vertex="1">
          <mxGeometry width="170" height="28" as="geometry">
            <mxRectangle width="170" height="28" as="alternateBounds" />
          </mxGeometry>
        </mxCell>
        <mxCell id="C-vyLk0tnHw3VtMMgP7b-29" value="varchar(50)" style="shape=partialRectangle;overflow=hidden;connectable=0;fillColor=none;top=0;left=0;bottom=0;right=0;align=left;spacingLeft=6;" parent="C-vyLk0tnHw3VtMMgP7b-27" vertex="1">
          <mxGeometry x="170" width="80" height="28" as="geometry">
            <mxRectangle width="80" height="28" as="alternateBounds" />
          </mxGeometry>
        </mxCell>
        <mxCell id="BaDLSpwHCjFPU6KFAHDN-8" style="shape=partialRectangle;collapsible=0;dropTarget=0;pointerEvents=0;fillColor=none;points=[[0,0.5],[1,0.5]];portConstraint=eastwest;top=0;left=0;right=0;bottom=0;" parent="C-vyLk0tnHw3VtMMgP7b-23" vertex="1">
          <mxGeometry y="90" width="250" height="70" as="geometry" />
        </mxCell>
        <mxCell id="BaDLSpwHCjFPU6KFAHDN-9" value="FirstName" style="shape=partialRectangle;overflow=hidden;connectable=0;fillColor=none;top=0;left=0;bottom=0;right=0;" parent="BaDLSpwHCjFPU6KFAHDN-8" vertex="1">
          <mxGeometry width="170" height="70" as="geometry">
            <mxRectangle width="170" height="70" as="alternateBounds" />
          </mxGeometry>
        </mxCell>
        <mxCell id="BaDLSpwHCjFPU6KFAHDN-10" value="varchar(50)" style="shape=partialRectangle;overflow=hidden;connectable=0;fillColor=none;top=0;left=0;bottom=0;right=0;align=left;spacingLeft=6;" parent="BaDLSpwHCjFPU6KFAHDN-8" vertex="1">
          <mxGeometry x="170" width="80" height="70" as="geometry">
            <mxRectangle width="80" height="70" as="alternateBounds" />
          </mxGeometry>
        </mxCell>
        <mxCell id="BaDLSpwHCjFPU6KFAHDN-14" value="Course" style="shape=table;startSize=30;container=1;collapsible=1;childLayout=tableLayout;fixedRows=1;rowLines=0;fontStyle=1;align=center;resizeLast=1;strokeColor=default;perimeterSpacing=1;strokeWidth=1;swimlaneLine=1;columnLines=0;" parent="1" vertex="1">
          <mxGeometry x="110" y="190" width="300" height="140.00000000000057" as="geometry" />
        </mxCell>
        <mxCell id="BaDLSpwHCjFPU6KFAHDN-15" value="" style="shape=partialRectangle;collapsible=0;dropTarget=0;pointerEvents=0;fillColor=none;points=[[0,0.5],[1,0.5]];portConstraint=eastwest;top=0;left=0;right=0;bottom=0;strokeColor=inherit;" parent="BaDLSpwHCjFPU6KFAHDN-14" vertex="1">
          <mxGeometry y="30" width="300" height="40" as="geometry" />
        </mxCell>
        <mxCell id="BaDLSpwHCjFPU6KFAHDN-16" value="CourseId" style="shape=partialRectangle;overflow=hidden;connectable=0;fillColor=none;top=0;left=0;bottom=0;right=0;fontStyle=4;strokeColor=inherit;strokeWidth=0;" parent="BaDLSpwHCjFPU6KFAHDN-15" vertex="1">
          <mxGeometry width="170" height="40" as="geometry">
            <mxRectangle width="170" height="40" as="alternateBounds" />
          </mxGeometry>
        </mxCell>
        <mxCell id="BaDLSpwHCjFPU6KFAHDN-17" value="int" style="shape=partialRectangle;overflow=hidden;connectable=0;fillColor=none;top=0;left=0;bottom=0;right=0;align=left;spacingLeft=6;fontStyle=0;strokeColor=inherit;" parent="BaDLSpwHCjFPU6KFAHDN-15" vertex="1">
          <mxGeometry x="170" width="90" height="40" as="geometry">
            <mxRectangle width="90" height="40" as="alternateBounds" />
          </mxGeometry>
        </mxCell>
        <mxCell id="BaDLSpwHCjFPU6KFAHDN-108" style="shape=partialRectangle;overflow=hidden;connectable=0;fillColor=none;top=0;left=0;bottom=0;right=0;align=left;spacingLeft=6;fontStyle=0;strokeColor=inherit;" parent="BaDLSpwHCjFPU6KFAHDN-15" vertex="1">
          <mxGeometry x="260" width="40" height="40" as="geometry">
            <mxRectangle width="40" height="40" as="alternateBounds" />
          </mxGeometry>
        </mxCell>
        <mxCell id="BaDLSpwHCjFPU6KFAHDN-18" value="" style="shape=partialRectangle;collapsible=0;dropTarget=0;pointerEvents=0;fillColor=none;points=[[0,0.5],[1,0.5]];portConstraint=eastwest;top=0;left=0;right=0;bottom=0;" parent="BaDLSpwHCjFPU6KFAHDN-14" vertex="1">
          <mxGeometry y="70" width="300" height="35" as="geometry" />
        </mxCell>
        <mxCell id="BaDLSpwHCjFPU6KFAHDN-19" value="CourseName" style="shape=partialRectangle;overflow=hidden;connectable=0;fillColor=none;top=0;left=0;bottom=0;right=0;strokeColor=inherit;" parent="BaDLSpwHCjFPU6KFAHDN-18" vertex="1">
          <mxGeometry width="170" height="35" as="geometry">
            <mxRectangle width="170" height="35" as="alternateBounds" />
          </mxGeometry>
        </mxCell>
        <mxCell id="BaDLSpwHCjFPU6KFAHDN-20" value="varchar(100)" style="shape=partialRectangle;overflow=hidden;connectable=0;fillColor=none;top=0;left=0;bottom=0;right=0;align=left;spacingLeft=6;perimeterSpacing=4;strokeColor=default;strokeWidth=0;" parent="BaDLSpwHCjFPU6KFAHDN-18" vertex="1">
          <mxGeometry x="170" width="90" height="35" as="geometry">
            <mxRectangle width="90" height="35" as="alternateBounds" />
          </mxGeometry>
        </mxCell>
        <mxCell id="BaDLSpwHCjFPU6KFAHDN-109" value="K1" style="shape=partialRectangle;overflow=hidden;connectable=0;fillColor=none;top=0;left=0;bottom=0;right=0;align=left;spacingLeft=6;perimeterSpacing=4;strokeColor=default;strokeWidth=0;" parent="BaDLSpwHCjFPU6KFAHDN-18" vertex="1">
          <mxGeometry x="260" width="40" height="35" as="geometry">
            <mxRectangle width="40" height="35" as="alternateBounds" />
          </mxGeometry>
        </mxCell>
        <mxCell id="BaDLSpwHCjFPU6KFAHDN-105" style="shape=partialRectangle;collapsible=0;dropTarget=0;pointerEvents=0;fillColor=none;points=[[0,0.5],[1,0.5]];portConstraint=eastwest;top=0;left=0;right=0;bottom=0;" parent="BaDLSpwHCjFPU6KFAHDN-14" vertex="1">
          <mxGeometry y="105" width="300" height="35" as="geometry" />
        </mxCell>
        <mxCell id="BaDLSpwHCjFPU6KFAHDN-106" value="CourseHours" style="shape=partialRectangle;overflow=hidden;connectable=0;fillColor=none;top=0;left=0;bottom=0;right=0;strokeColor=inherit;" parent="BaDLSpwHCjFPU6KFAHDN-105" vertex="1">
          <mxGeometry width="170" height="35" as="geometry">
            <mxRectangle width="170" height="35" as="alternateBounds" />
          </mxGeometry>
        </mxCell>
        <mxCell id="BaDLSpwHCjFPU6KFAHDN-107" value="int" style="shape=partialRectangle;overflow=hidden;connectable=0;fillColor=none;top=0;left=0;bottom=0;right=0;align=left;spacingLeft=6;perimeterSpacing=4;strokeColor=default;strokeWidth=0;" parent="BaDLSpwHCjFPU6KFAHDN-105" vertex="1">
          <mxGeometry x="170" width="90" height="35" as="geometry">
            <mxRectangle width="90" height="35" as="alternateBounds" />
          </mxGeometry>
        </mxCell>
        <mxCell id="BaDLSpwHCjFPU6KFAHDN-110" style="shape=partialRectangle;overflow=hidden;connectable=0;fillColor=none;top=0;left=0;bottom=0;right=0;align=left;spacingLeft=6;perimeterSpacing=4;strokeColor=default;strokeWidth=0;" parent="BaDLSpwHCjFPU6KFAHDN-105" vertex="1">
          <mxGeometry x="260" width="40" height="35" as="geometry">
            <mxRectangle width="40" height="35" as="alternateBounds" />
          </mxGeometry>
        </mxCell>
        <mxCell id="BaDLSpwHCjFPU6KFAHDN-27" value="Group" style="shape=table;startSize=30;container=1;collapsible=1;childLayout=tableLayout;fixedRows=0;rowLines=0;fontStyle=1;align=center;resizeLast=1;columnLines=0;" parent="1" vertex="1">
          <mxGeometry x="580" y="205" width="250" height="70" as="geometry" />
        </mxCell>
        <mxCell id="BaDLSpwHCjFPU6KFAHDN-28" value="" style="shape=partialRectangle;collapsible=0;dropTarget=0;pointerEvents=0;fillColor=none;points=[[0,0.5],[1,0.5]];portConstraint=eastwest;top=0;left=0;right=0;bottom=1;" parent="BaDLSpwHCjFPU6KFAHDN-27" vertex="1">
          <mxGeometry y="30" width="250" height="40" as="geometry" />
        </mxCell>
        <mxCell id="BaDLSpwHCjFPU6KFAHDN-29" value="GroupName" style="shape=partialRectangle;overflow=hidden;connectable=0;fillColor=none;top=0;left=0;bottom=0;right=0;fontStyle=4;" parent="BaDLSpwHCjFPU6KFAHDN-28" vertex="1">
          <mxGeometry width="150" height="40" as="geometry">
            <mxRectangle width="150" height="40" as="alternateBounds" />
          </mxGeometry>
        </mxCell>
        <mxCell id="BaDLSpwHCjFPU6KFAHDN-30" value="varchar(30)" style="shape=partialRectangle;overflow=hidden;connectable=0;fillColor=none;top=0;left=0;bottom=0;right=0;align=left;spacingLeft=6;fontStyle=0;" parent="BaDLSpwHCjFPU6KFAHDN-28" vertex="1">
          <mxGeometry x="150" width="100" height="40" as="geometry">
            <mxRectangle width="100" height="40" as="alternateBounds" />
          </mxGeometry>
        </mxCell>
        <mxCell id="BaDLSpwHCjFPU6KFAHDN-53" value="Grade" style="shape=table;startSize=30;container=1;collapsible=1;childLayout=tableLayout;fixedRows=1;rowLines=0;fontStyle=1;align=center;resizeLast=1;rounded=0;columnLines=0;" parent="1" vertex="1">
          <mxGeometry x="740" y="620" width="250" height="200" as="geometry" />
        </mxCell>
        <mxCell id="EfkYQA3CrYHZ-EN8_T6L-37" style="shape=partialRectangle;collapsible=0;dropTarget=0;pointerEvents=0;fillColor=none;points=[[0,0.5],[1,0.5]];portConstraint=eastwest;top=0;left=0;right=0;bottom=0;" vertex="1" parent="BaDLSpwHCjFPU6KFAHDN-53">
          <mxGeometry y="30" width="250" height="40" as="geometry" />
        </mxCell>
        <mxCell id="EfkYQA3CrYHZ-EN8_T6L-38" value="StudentId" style="shape=partialRectangle;overflow=hidden;connectable=0;fillColor=none;top=0;left=0;bottom=0;right=0;fontStyle=4" vertex="1" parent="EfkYQA3CrYHZ-EN8_T6L-37">
          <mxGeometry width="170" height="40" as="geometry">
            <mxRectangle width="170" height="40" as="alternateBounds" />
          </mxGeometry>
        </mxCell>
        <mxCell id="EfkYQA3CrYHZ-EN8_T6L-39" value="int" style="shape=partialRectangle;overflow=hidden;connectable=0;fillColor=none;top=0;left=0;bottom=0;right=0;align=left;spacingLeft=6;" vertex="1" parent="EfkYQA3CrYHZ-EN8_T6L-37">
          <mxGeometry x="170" width="80" height="40" as="geometry">
            <mxRectangle width="80" height="40" as="alternateBounds" />
          </mxGeometry>
        </mxCell>
        <mxCell id="EfkYQA3CrYHZ-EN8_T6L-40" style="shape=partialRectangle;collapsible=0;dropTarget=0;pointerEvents=0;fillColor=none;points=[[0,0.5],[1,0.5]];portConstraint=eastwest;top=0;left=0;right=0;bottom=0;" vertex="1" parent="BaDLSpwHCjFPU6KFAHDN-53">
          <mxGeometry y="70" width="250" height="30" as="geometry" />
        </mxCell>
        <mxCell id="EfkYQA3CrYHZ-EN8_T6L-41" value="TeacherId" style="shape=partialRectangle;overflow=hidden;connectable=0;fillColor=none;top=0;left=0;bottom=0;right=0;fontStyle=4" vertex="1" parent="EfkYQA3CrYHZ-EN8_T6L-40">
          <mxGeometry width="170" height="30" as="geometry">
            <mxRectangle width="170" height="30" as="alternateBounds" />
          </mxGeometry>
        </mxCell>
        <mxCell id="EfkYQA3CrYHZ-EN8_T6L-42" value="int" style="shape=partialRectangle;overflow=hidden;connectable=0;fillColor=none;top=0;left=0;bottom=0;right=0;align=left;spacingLeft=6;" vertex="1" parent="EfkYQA3CrYHZ-EN8_T6L-40">
          <mxGeometry x="170" width="80" height="30" as="geometry">
            <mxRectangle width="80" height="30" as="alternateBounds" />
          </mxGeometry>
        </mxCell>
        <mxCell id="EfkYQA3CrYHZ-EN8_T6L-43" style="shape=partialRectangle;collapsible=0;dropTarget=0;pointerEvents=0;fillColor=none;points=[[0,0.5],[1,0.5]];portConstraint=eastwest;top=0;left=0;right=0;bottom=0;" vertex="1" parent="BaDLSpwHCjFPU6KFAHDN-53">
          <mxGeometry y="100" width="250" height="30" as="geometry" />
        </mxCell>
        <mxCell id="EfkYQA3CrYHZ-EN8_T6L-44" value="CourseId" style="shape=partialRectangle;overflow=hidden;connectable=0;fillColor=none;top=0;left=0;bottom=0;right=0;fontStyle=4" vertex="1" parent="EfkYQA3CrYHZ-EN8_T6L-43">
          <mxGeometry width="170" height="30" as="geometry">
            <mxRectangle width="170" height="30" as="alternateBounds" />
          </mxGeometry>
        </mxCell>
        <mxCell id="EfkYQA3CrYHZ-EN8_T6L-45" value="int" style="shape=partialRectangle;overflow=hidden;connectable=0;fillColor=none;top=0;left=0;bottom=0;right=0;align=left;spacingLeft=6;" vertex="1" parent="EfkYQA3CrYHZ-EN8_T6L-43">
          <mxGeometry x="170" width="80" height="30" as="geometry">
            <mxRectangle width="80" height="30" as="alternateBounds" />
          </mxGeometry>
        </mxCell>
        <mxCell id="BaDLSpwHCjFPU6KFAHDN-57" value="" style="shape=partialRectangle;collapsible=0;dropTarget=0;pointerEvents=0;fillColor=none;points=[[0,0.5],[1,0.5]];portConstraint=eastwest;top=0;left=0;right=0;bottom=0;" parent="BaDLSpwHCjFPU6KFAHDN-53" vertex="1">
          <mxGeometry y="130" width="250" height="30" as="geometry" />
        </mxCell>
        <mxCell id="BaDLSpwHCjFPU6KFAHDN-58" value="GradeValue" style="shape=partialRectangle;overflow=hidden;connectable=0;fillColor=none;top=0;left=0;bottom=0;right=0;" parent="BaDLSpwHCjFPU6KFAHDN-57" vertex="1">
          <mxGeometry width="170" height="30" as="geometry">
            <mxRectangle width="170" height="30" as="alternateBounds" />
          </mxGeometry>
        </mxCell>
        <mxCell id="BaDLSpwHCjFPU6KFAHDN-59" value="int" style="shape=partialRectangle;overflow=hidden;connectable=0;fillColor=none;top=0;left=0;bottom=0;right=0;align=left;spacingLeft=6;" parent="BaDLSpwHCjFPU6KFAHDN-57" vertex="1">
          <mxGeometry x="170" width="80" height="30" as="geometry">
            <mxRectangle width="80" height="30" as="alternateBounds" />
          </mxGeometry>
        </mxCell>
        <mxCell id="BaDLSpwHCjFPU6KFAHDN-80" style="shape=partialRectangle;collapsible=0;dropTarget=0;pointerEvents=0;fillColor=none;points=[[0,0.5],[1,0.5]];portConstraint=eastwest;top=0;left=0;right=0;bottom=0;" parent="BaDLSpwHCjFPU6KFAHDN-53" vertex="1">
          <mxGeometry y="160" width="250" height="30" as="geometry" />
        </mxCell>
        <mxCell id="BaDLSpwHCjFPU6KFAHDN-81" value="GradeTime" style="shape=partialRectangle;overflow=hidden;connectable=0;fillColor=none;top=0;left=0;bottom=0;right=0;" parent="BaDLSpwHCjFPU6KFAHDN-80" vertex="1">
          <mxGeometry width="170" height="30" as="geometry">
            <mxRectangle width="170" height="30" as="alternateBounds" />
          </mxGeometry>
        </mxCell>
        <mxCell id="BaDLSpwHCjFPU6KFAHDN-82" value="datetime" style="shape=partialRectangle;overflow=hidden;connectable=0;fillColor=none;top=0;left=0;bottom=0;right=0;align=left;spacingLeft=6;" parent="BaDLSpwHCjFPU6KFAHDN-80" vertex="1">
          <mxGeometry x="170" width="80" height="30" as="geometry">
            <mxRectangle width="80" height="30" as="alternateBounds" />
          </mxGeometry>
        </mxCell>
        <mxCell id="BaDLSpwHCjFPU6KFAHDN-60" style="edgeStyle=orthogonalEdgeStyle;curved=1;rounded=0;orthogonalLoop=1;jettySize=auto;html=1;exitX=1;exitY=0.5;exitDx=0;exitDy=0;entryX=0.007;entryY=0.924;entryDx=0;entryDy=0;endArrow=ERzeroToOne;endFill=0;startArrow=ERone;startFill=0;entryPerimeter=0;shape=link;" parent="1" source="BaDLSpwHCjFPU6KFAHDN-11" target="BaDLSpwHCjFPU6KFAHDN-57" edge="1">
          <mxGeometry relative="1" as="geometry" />
        </mxCell>
      </root>
    </mxGraphModel>
  </diagram>
</mxfile>
